<mxfile host="app.diagrams.net" modified="2022-03-13T20:37:07.534Z" agent="5.0 (Macintosh; Intel Mac OS X 10_15_7) AppleWebKit/537.36 (KHTML, like Gecko) Chrome/99.0.4844.51 Safari/537.36" etag="n_BC9TqJXYIKQZKuJUkc" version="17.1.2" type="github" pages="5">
  <diagram id="rRBAAMQKNHw9aOZdCGOo" name="2.1">
    <mxGraphModel dx="946" dy="557" grid="1" gridSize="10" guides="1" tooltips="1" connect="1" arrows="1" fold="1" page="1" pageScale="1" pageWidth="827" pageHeight="1169" math="0" shadow="0">
      <root>
        <mxCell id="0" />
        <mxCell id="1" parent="0" />
        <mxCell id="07cZEC9D31jYXvyWtX_6-1" value="" style="verticalLabelPosition=bottom;verticalAlign=top;html=1;shape=mxgraph.basic.rect;fillColor2=none;strokeWidth=1;size=20;indent=5;rotation=-90;dashed=1;fillColor=#fff2cc;strokeColor=#d6b656;" parent="1" vertex="1">
          <mxGeometry x="215" y="230" width="485" height="225" as="geometry" />
        </mxCell>
        <mxCell id="0MThmSpImU8zYmVHz2Wk-13" value="" style="verticalLabelPosition=bottom;verticalAlign=top;html=1;shape=mxgraph.basic.rect;fillColor2=none;strokeWidth=1;size=20;indent=5;rotation=-90;dashed=1;fillColor=#f8cecc;strokeColor=#b85450;" parent="1" vertex="1">
          <mxGeometry x="675.5" y="225" width="485" height="235" as="geometry" />
        </mxCell>
        <mxCell id="0MThmSpImU8zYmVHz2Wk-12" value="" style="verticalLabelPosition=bottom;verticalAlign=top;html=1;shape=mxgraph.basic.rect;fillColor2=none;strokeWidth=1;size=20;indent=5;rotation=-90;dashed=1;fillColor=#e1d5e7;strokeColor=#9673a6;" parent="1" vertex="1">
          <mxGeometry x="440" y="225" width="485" height="235" as="geometry" />
        </mxCell>
        <mxCell id="0MThmSpImU8zYmVHz2Wk-11" value="" style="verticalLabelPosition=bottom;verticalAlign=top;html=1;shape=mxgraph.basic.rect;fillColor2=none;strokeWidth=1;size=20;indent=5;rotation=-90;dashed=1;fillColor=#d5e8d4;strokeColor=#82b366;" parent="1" vertex="1">
          <mxGeometry x="-15" y="225" width="485" height="235" as="geometry" />
        </mxCell>
        <mxCell id="0MThmSpImU8zYmVHz2Wk-1" value="" style="image;html=1;image=img/lib/clip_art/computers/Database_128x128.png" parent="1" vertex="1">
          <mxGeometry x="878" y="350" width="80" height="80" as="geometry" />
        </mxCell>
        <mxCell id="0MThmSpImU8zYmVHz2Wk-7" style="edgeStyle=orthogonalEdgeStyle;rounded=0;orthogonalLoop=1;jettySize=auto;html=1;exitX=0;exitY=0.5;exitDx=0;exitDy=0;entryX=1;entryY=0.5;entryDx=0;entryDy=0;" parent="1" source="0MThmSpImU8zYmVHz2Wk-2" target="0MThmSpImU8zYmVHz2Wk-3" edge="1">
          <mxGeometry relative="1" as="geometry">
            <Array as="points">
              <mxPoint x="320" y="390" />
              <mxPoint x="320" y="280" />
            </Array>
          </mxGeometry>
        </mxCell>
        <mxCell id="0MThmSpImU8zYmVHz2Wk-8" style="edgeStyle=orthogonalEdgeStyle;rounded=0;orthogonalLoop=1;jettySize=auto;html=1;exitX=0;exitY=0.5;exitDx=0;exitDy=0;entryX=1;entryY=0.5;entryDx=0;entryDy=0;" parent="1" source="0MThmSpImU8zYmVHz2Wk-2" target="0MThmSpImU8zYmVHz2Wk-5" edge="1">
          <mxGeometry relative="1" as="geometry" />
        </mxCell>
        <mxCell id="0MThmSpImU8zYmVHz2Wk-9" style="edgeStyle=orthogonalEdgeStyle;rounded=0;orthogonalLoop=1;jettySize=auto;html=1;exitX=0;exitY=0.5;exitDx=0;exitDy=0;entryX=1;entryY=0.5;entryDx=0;entryDy=0;startArrow=classic;startFill=1;" parent="1" source="0MThmSpImU8zYmVHz2Wk-2" target="0MThmSpImU8zYmVHz2Wk-6" edge="1">
          <mxGeometry relative="1" as="geometry">
            <Array as="points">
              <mxPoint x="320" y="390" />
              <mxPoint x="320" y="500" />
            </Array>
          </mxGeometry>
        </mxCell>
        <mxCell id="0MThmSpImU8zYmVHz2Wk-10" style="edgeStyle=orthogonalEdgeStyle;rounded=0;orthogonalLoop=1;jettySize=auto;html=1;exitX=1;exitY=0.5;exitDx=0;exitDy=0;entryX=0;entryY=0.5;entryDx=0;entryDy=0;startArrow=classic;startFill=1;" parent="1" source="0MThmSpImU8zYmVHz2Wk-2" target="0MThmSpImU8zYmVHz2Wk-1" edge="1">
          <mxGeometry relative="1" as="geometry" />
        </mxCell>
        <mxCell id="0MThmSpImU8zYmVHz2Wk-2" value="" style="image;html=1;image=img/lib/clip_art/computers/Server_Rack_Partial_128x128.png" parent="1" vertex="1">
          <mxGeometry x="632.5" y="330" width="100" height="120" as="geometry" />
        </mxCell>
        <mxCell id="0MThmSpImU8zYmVHz2Wk-3" value="" style="image;html=1;image=img/lib/clip_art/computers/Laptop_128x128.png" parent="1" vertex="1">
          <mxGeometry x="160" y="240" width="80" height="80" as="geometry" />
        </mxCell>
        <mxCell id="0MThmSpImU8zYmVHz2Wk-5" value="" style="image;html=1;image=img/lib/clip_art/computers/Monitor_Tower_128x128.png" parent="1" vertex="1">
          <mxGeometry x="160" y="350" width="80" height="80" as="geometry" />
        </mxCell>
        <mxCell id="0MThmSpImU8zYmVHz2Wk-6" value="" style="image;html=1;image=img/lib/clip_art/telecommunication/iPhone_128x128.png" parent="1" vertex="1">
          <mxGeometry x="160" y="460" width="80" height="80" as="geometry" />
        </mxCell>
        <mxCell id="0MThmSpImU8zYmVHz2Wk-14" value="КЛИЕНТЫ" style="text;html=1;align=center;verticalAlign=middle;resizable=0;points=[];autosize=1;strokeColor=none;fillColor=none;fontSize=32;" parent="1" vertex="1">
          <mxGeometry x="142.5" y="130" width="170" height="40" as="geometry" />
        </mxCell>
        <mxCell id="0MThmSpImU8zYmVHz2Wk-15" value="СЕРВЕР" style="text;html=1;align=center;verticalAlign=middle;resizable=0;points=[];autosize=1;strokeColor=none;fillColor=none;fontSize=32;" parent="1" vertex="1">
          <mxGeometry x="607.5" y="130" width="150" height="40" as="geometry" />
        </mxCell>
        <mxCell id="0MThmSpImU8zYmVHz2Wk-16" value="БАЗА &lt;br&gt;ДАННЫХ" style="text;html=1;align=center;verticalAlign=middle;resizable=0;points=[];autosize=1;strokeColor=none;fillColor=none;fontSize=32;" parent="1" vertex="1">
          <mxGeometry x="838" y="110" width="160" height="80" as="geometry" />
        </mxCell>
        <mxCell id="CCs0apERn6RNRqBHWkci-1" value="API" style="text;html=1;align=center;verticalAlign=middle;resizable=0;points=[];autosize=1;strokeColor=none;fillColor=none;fontSize=32;" parent="1" vertex="1">
          <mxGeometry x="422.5" y="130" width="70" height="40" as="geometry" />
        </mxCell>
      </root>
    </mxGraphModel>
  </diagram>
  <diagram id="cEtpJcNim1aq1vf9fKEU" name="2.2">
    <mxGraphModel dx="946" dy="557" grid="1" gridSize="10" guides="1" tooltips="1" connect="1" arrows="1" fold="1" page="1" pageScale="1" pageWidth="827" pageHeight="1169" math="0" shadow="0">
      <root>
        <mxCell id="6jezploPaR5U7UMBFnvc-0" />
        <mxCell id="6jezploPaR5U7UMBFnvc-1" parent="6jezploPaR5U7UMBFnvc-0" />
        <mxCell id="6jezploPaR5U7UMBFnvc-3" value="&lt;span style=&quot;color: rgb(0, 0, 0); font-style: normal; font-weight: normal; letter-spacing: normal; text-indent: 0px; text-transform: none; word-spacing: 0px; text-decoration: none; font-size: 14pt; line-height: 28px; font-family: &amp;quot;times new roman&amp;quot;, serif;&quot;&gt;подсистема ввода данных об учреждении&lt;/span&gt;&lt;span style=&quot;color: rgb(0, 0, 0); font-size: medium; font-style: normal; font-weight: normal; letter-spacing: normal; text-indent: 0px; text-transform: none; word-spacing: 0px; text-decoration: none; display: inline; float: none;&quot;&gt;&lt;/span&gt;" style="verticalLabelPosition=bottom;verticalAlign=top;html=1;shape=mxgraph.basic.rect;fillColor2=none;strokeWidth=1;size=20;indent=5;rotation=-90;dashed=1;fillColor=#e1d5e7;strokeColor=#9673a6;" parent="6jezploPaR5U7UMBFnvc-1" vertex="1">
          <mxGeometry x="340.5" y="105" width="485" height="475" as="geometry" />
        </mxCell>
        <mxCell id="6jezploPaR5U7UMBFnvc-4" value="" style="verticalLabelPosition=bottom;verticalAlign=top;html=1;shape=mxgraph.basic.rect;fillColor2=none;strokeWidth=1;size=20;indent=5;rotation=-90;dashed=1;fillColor=#fff2cc;strokeColor=#d6b656;" parent="6jezploPaR5U7UMBFnvc-1" vertex="1">
          <mxGeometry x="-15" y="225" width="485" height="235" as="geometry" />
        </mxCell>
        <mxCell id="6jezploPaR5U7UMBFnvc-14" value="API" style="text;html=1;align=center;verticalAlign=middle;resizable=0;points=[];autosize=1;strokeColor=none;fillColor=none;fontSize=32;" parent="6jezploPaR5U7UMBFnvc-1" vertex="1">
          <mxGeometry x="192.5" y="130" width="70" height="40" as="geometry" />
        </mxCell>
        <mxCell id="6jezploPaR5U7UMBFnvc-15" value="СЕРВЕР" style="text;html=1;align=center;verticalAlign=middle;resizable=0;points=[];autosize=1;strokeColor=none;fillColor=none;fontSize=32;" parent="6jezploPaR5U7UMBFnvc-1" vertex="1">
          <mxGeometry x="508" y="130" width="150" height="40" as="geometry" />
        </mxCell>
        <mxCell id="pAwEDMeyF3UbKk22oQfr-15" style="edgeStyle=orthogonalEdgeStyle;rounded=0;orthogonalLoop=1;jettySize=auto;html=1;exitX=0;exitY=0.5;exitDx=0;exitDy=0;fontSize=16;startArrow=classic;startFill=1;endArrow=none;endFill=0;" parent="6jezploPaR5U7UMBFnvc-1" source="6jezploPaR5U7UMBFnvc-18" edge="1">
          <mxGeometry relative="1" as="geometry">
            <mxPoint x="80" y="515" as="targetPoint" />
          </mxGeometry>
        </mxCell>
        <mxCell id="6jezploPaR5U7UMBFnvc-18" value="Подсистема регистрации, авторизации и аутентификации" style="rounded=0;whiteSpace=wrap;html=1;fontSize=16;strokeWidth=4;fillColor=#F1E5F7;strokeColor=#B5739D;" parent="6jezploPaR5U7UMBFnvc-1" vertex="1">
          <mxGeometry x="370" y="470" width="180" height="90" as="geometry" />
        </mxCell>
        <mxCell id="6jezploPaR5U7UMBFnvc-19" value="" style="verticalLabelPosition=bottom;verticalAlign=top;html=1;shape=mxgraph.basic.rect;fillColor2=none;strokeWidth=1;size=20;indent=5;rotation=-90;dashed=1;fillColor=#f8cecc;strokeColor=#b85450;" parent="6jezploPaR5U7UMBFnvc-1" vertex="1">
          <mxGeometry x="690" y="225" width="485" height="235" as="geometry" />
        </mxCell>
        <mxCell id="6jezploPaR5U7UMBFnvc-20" value="" style="image;html=1;image=img/lib/clip_art/computers/Database_128x128.png" parent="6jezploPaR5U7UMBFnvc-1" vertex="1">
          <mxGeometry x="892.5" y="318" width="80" height="80" as="geometry" />
        </mxCell>
        <mxCell id="6jezploPaR5U7UMBFnvc-21" value="БАЗА &lt;br&gt;ДАННЫХ" style="text;html=1;align=center;verticalAlign=middle;resizable=0;points=[];autosize=1;strokeColor=none;fillColor=none;fontSize=32;" parent="6jezploPaR5U7UMBFnvc-1" vertex="1">
          <mxGeometry x="852.5" y="110" width="160" height="80" as="geometry" />
        </mxCell>
        <mxCell id="pAwEDMeyF3UbKk22oQfr-6" style="edgeStyle=orthogonalEdgeStyle;rounded=0;orthogonalLoop=1;jettySize=auto;html=1;exitX=0.5;exitY=1;exitDx=0;exitDy=0;entryX=0.5;entryY=0;entryDx=0;entryDy=0;fontSize=16;startArrow=none;startFill=0;" parent="6jezploPaR5U7UMBFnvc-1" source="pAwEDMeyF3UbKk22oQfr-0" target="pAwEDMeyF3UbKk22oQfr-1" edge="1">
          <mxGeometry relative="1" as="geometry" />
        </mxCell>
        <mxCell id="pAwEDMeyF3UbKk22oQfr-17" style="edgeStyle=orthogonalEdgeStyle;rounded=0;orthogonalLoop=1;jettySize=auto;html=1;exitX=0;exitY=0.5;exitDx=0;exitDy=0;fontSize=16;startArrow=classic;startFill=1;endArrow=none;endFill=0;" parent="6jezploPaR5U7UMBFnvc-1" source="pAwEDMeyF3UbKk22oQfr-0" edge="1">
          <mxGeometry relative="1" as="geometry">
            <mxPoint x="80" y="245" as="targetPoint" />
          </mxGeometry>
        </mxCell>
        <mxCell id="L5G3qIp-JjfSEuCg0vUt-2" style="edgeStyle=orthogonalEdgeStyle;rounded=0;orthogonalLoop=1;jettySize=auto;html=1;exitX=1;exitY=0.5;exitDx=0;exitDy=0;entryX=0;entryY=0.5;entryDx=0;entryDy=0;startArrow=classic;startFill=1;" edge="1" parent="6jezploPaR5U7UMBFnvc-1" source="pAwEDMeyF3UbKk22oQfr-0" target="pAwEDMeyF3UbKk22oQfr-2">
          <mxGeometry relative="1" as="geometry" />
        </mxCell>
        <mxCell id="pAwEDMeyF3UbKk22oQfr-0" value="Подсистема формирования паспорта ПЭС" style="rounded=0;whiteSpace=wrap;html=1;fontSize=16;strokeWidth=4;fillColor=#F1E5F7;strokeColor=#B5739D;" parent="6jezploPaR5U7UMBFnvc-1" vertex="1">
          <mxGeometry x="370" y="200" width="180" height="90" as="geometry" />
        </mxCell>
        <mxCell id="pAwEDMeyF3UbKk22oQfr-9" style="edgeStyle=orthogonalEdgeStyle;rounded=0;orthogonalLoop=1;jettySize=auto;html=1;exitX=0.5;exitY=1;exitDx=0;exitDy=0;entryX=0.5;entryY=0;entryDx=0;entryDy=0;fontSize=16;startArrow=none;startFill=0;" parent="6jezploPaR5U7UMBFnvc-1" source="pAwEDMeyF3UbKk22oQfr-1" target="6jezploPaR5U7UMBFnvc-18" edge="1">
          <mxGeometry relative="1" as="geometry" />
        </mxCell>
        <mxCell id="pAwEDMeyF3UbKk22oQfr-12" style="edgeStyle=orthogonalEdgeStyle;rounded=0;orthogonalLoop=1;jettySize=auto;html=1;exitX=1;exitY=0.25;exitDx=0;exitDy=0;entryX=0;entryY=0.5;entryDx=0;entryDy=0;fontSize=16;startArrow=classic;startFill=1;" parent="6jezploPaR5U7UMBFnvc-1" source="pAwEDMeyF3UbKk22oQfr-1" target="6jezploPaR5U7UMBFnvc-20" edge="1">
          <mxGeometry relative="1" as="geometry" />
        </mxCell>
        <mxCell id="pAwEDMeyF3UbKk22oQfr-16" style="edgeStyle=orthogonalEdgeStyle;rounded=0;orthogonalLoop=1;jettySize=auto;html=1;exitX=0;exitY=0.5;exitDx=0;exitDy=0;fontSize=16;startArrow=classic;startFill=1;endArrow=none;endFill=0;" parent="6jezploPaR5U7UMBFnvc-1" source="pAwEDMeyF3UbKk22oQfr-1" edge="1">
          <mxGeometry relative="1" as="geometry">
            <mxPoint x="80" y="380" as="targetPoint" />
          </mxGeometry>
        </mxCell>
        <mxCell id="L5G3qIp-JjfSEuCg0vUt-1" style="edgeStyle=orthogonalEdgeStyle;rounded=0;orthogonalLoop=1;jettySize=auto;html=1;exitX=1;exitY=0.75;exitDx=0;exitDy=0;entryX=0.5;entryY=0;entryDx=0;entryDy=0;startArrow=classic;startFill=1;" edge="1" parent="6jezploPaR5U7UMBFnvc-1" source="pAwEDMeyF3UbKk22oQfr-1" target="L5G3qIp-JjfSEuCg0vUt-0">
          <mxGeometry relative="1" as="geometry" />
        </mxCell>
        <mxCell id="pAwEDMeyF3UbKk22oQfr-1" value="Подсистема ввода данных об учреждении" style="rounded=0;whiteSpace=wrap;html=1;fontSize=16;strokeWidth=4;fillColor=#F1E5F7;strokeColor=#B5739D;" parent="6jezploPaR5U7UMBFnvc-1" vertex="1">
          <mxGeometry x="370" y="335" width="180" height="90" as="geometry" />
        </mxCell>
        <mxCell id="pAwEDMeyF3UbKk22oQfr-2" value="Подсистема подбора энергосберегающих мероприятий" style="rounded=0;whiteSpace=wrap;html=1;fontSize=16;strokeWidth=4;fillColor=#F1E5F7;strokeColor=#B5739D;" parent="6jezploPaR5U7UMBFnvc-1" vertex="1">
          <mxGeometry x="610" y="200" width="180" height="90" as="geometry" />
        </mxCell>
        <mxCell id="L5G3qIp-JjfSEuCg0vUt-0" value="Подсистема интеллектуальной валидации ввода данных пользователя" style="rounded=0;whiteSpace=wrap;html=1;fontSize=16;strokeWidth=4;fillColor=#F1E5F7;strokeColor=#B5739D;" vertex="1" parent="6jezploPaR5U7UMBFnvc-1">
          <mxGeometry x="610" y="470" width="180" height="90" as="geometry" />
        </mxCell>
      </root>
    </mxGraphModel>
  </diagram>
  <diagram id="T4hb9eTHFMHJ66Ka-Dtj" name="2.3">
    <mxGraphModel dx="1773" dy="557" grid="1" gridSize="10" guides="1" tooltips="1" connect="1" arrows="1" fold="1" page="1" pageScale="1" pageWidth="827" pageHeight="1169" math="0" shadow="0">
      <root>
        <mxCell id="vDpiEcn6uXyjwfCjXjLu-0" />
        <mxCell id="vDpiEcn6uXyjwfCjXjLu-1" parent="vDpiEcn6uXyjwfCjXjLu-0" />
        <mxCell id="vRkok06GMjKrH3r6sdrk-0" value="" style="verticalLabelPosition=bottom;verticalAlign=top;html=1;shape=mxgraph.basic.rect;fillColor2=none;strokeWidth=1;size=20;indent=5;rotation=-90;dashed=1;fillColor=#fff2cc;strokeColor=#d6b656;" vertex="1" parent="vDpiEcn6uXyjwfCjXjLu-1">
          <mxGeometry x="215" y="230" width="485" height="225" as="geometry" />
        </mxCell>
        <mxCell id="vRkok06GMjKrH3r6sdrk-1" value="" style="verticalLabelPosition=bottom;verticalAlign=top;html=1;shape=mxgraph.basic.rect;fillColor2=none;strokeWidth=1;size=20;indent=5;rotation=-90;dashed=1;fillColor=#d5e8d4;strokeColor=#82b366;" vertex="1" parent="vDpiEcn6uXyjwfCjXjLu-1">
          <mxGeometry x="-151.25" y="88.75" width="485" height="507.5" as="geometry" />
        </mxCell>
        <mxCell id="vRkok06GMjKrH3r6sdrk-2" value="КЛИЕНТСКАЯ &lt;br&gt;ЧАСТЬ" style="text;html=1;align=center;verticalAlign=middle;resizable=0;points=[];autosize=1;strokeColor=none;fillColor=none;fontSize=32;" vertex="1" parent="vDpiEcn6uXyjwfCjXjLu-1">
          <mxGeometry x="-10" y="110" width="240" height="80" as="geometry" />
        </mxCell>
        <mxCell id="vRkok06GMjKrH3r6sdrk-3" value="API" style="text;html=1;align=center;verticalAlign=middle;resizable=0;points=[];autosize=1;strokeColor=none;fillColor=none;fontSize=32;" vertex="1" parent="vDpiEcn6uXyjwfCjXjLu-1">
          <mxGeometry x="422.5" y="130" width="70" height="40" as="geometry" />
        </mxCell>
        <mxCell id="UxlzFSRNFClFM0cdWgSV-4" style="edgeStyle=orthogonalEdgeStyle;rounded=0;orthogonalLoop=1;jettySize=auto;html=1;exitX=0;exitY=0.5;exitDx=0;exitDy=0;entryX=0.995;entryY=0.493;entryDx=0;entryDy=0;entryPerimeter=0;fontSize=16;startArrow=classic;startFill=1;endArrow=none;endFill=0;" edge="1" parent="vDpiEcn6uXyjwfCjXjLu-1" source="B07T3uGakTIzJWUYaqw0-0" target="B07T3uGakTIzJWUYaqw0-2">
          <mxGeometry relative="1" as="geometry">
            <Array as="points">
              <mxPoint x="-181" y="329" />
            </Array>
          </mxGeometry>
        </mxCell>
        <mxCell id="UxlzFSRNFClFM0cdWgSV-5" style="edgeStyle=orthogonalEdgeStyle;rounded=0;orthogonalLoop=1;jettySize=auto;html=1;exitX=1;exitY=0.5;exitDx=0;exitDy=0;entryX=0;entryY=0.5;entryDx=0;entryDy=0;fontSize=16;startArrow=classic;startFill=1;endArrow=classic;endFill=1;" edge="1" parent="vDpiEcn6uXyjwfCjXjLu-1" source="B07T3uGakTIzJWUYaqw0-0" target="UxlzFSRNFClFM0cdWgSV-2">
          <mxGeometry relative="1" as="geometry" />
        </mxCell>
        <mxCell id="UxlzFSRNFClFM0cdWgSV-6" style="edgeStyle=orthogonalEdgeStyle;rounded=0;orthogonalLoop=1;jettySize=auto;html=1;exitX=1;exitY=0.5;exitDx=0;exitDy=0;entryX=0;entryY=0.5;entryDx=0;entryDy=0;fontSize=16;startArrow=classic;startFill=1;endArrow=classic;endFill=1;" edge="1" parent="vDpiEcn6uXyjwfCjXjLu-1" source="B07T3uGakTIzJWUYaqw0-0" target="UxlzFSRNFClFM0cdWgSV-0">
          <mxGeometry relative="1" as="geometry" />
        </mxCell>
        <mxCell id="B07T3uGakTIzJWUYaqw0-0" value="Подсистема &lt;br&gt;роутинга" style="rounded=0;whiteSpace=wrap;html=1;fontSize=16;strokeWidth=4;fillColor=#E1F5E0;strokeColor=#82b366;" vertex="1" parent="vDpiEcn6uXyjwfCjXjLu-1">
          <mxGeometry x="-140" y="284" width="130" height="90" as="geometry" />
        </mxCell>
        <mxCell id="B07T3uGakTIzJWUYaqw0-2" value="" style="verticalLabelPosition=bottom;shadow=0;dashed=0;align=center;html=1;verticalAlign=top;strokeWidth=1;shape=mxgraph.mockup.containers.userMale;strokeColor=#666666;strokeColor2=#008cff;fontSize=16;" vertex="1" parent="vDpiEcn6uXyjwfCjXjLu-1">
          <mxGeometry x="-390" y="224" width="210" height="210" as="geometry" />
        </mxCell>
        <mxCell id="B07T3uGakTIzJWUYaqw0-3" value="Пользователь" style="text;html=1;align=center;verticalAlign=middle;resizable=0;points=[];autosize=1;strokeColor=none;fillColor=none;fontSize=32;" vertex="1" parent="vDpiEcn6uXyjwfCjXjLu-1">
          <mxGeometry x="-400" y="459" width="230" height="40" as="geometry" />
        </mxCell>
        <mxCell id="UxlzFSRNFClFM0cdWgSV-7" style="edgeStyle=orthogonalEdgeStyle;rounded=0;orthogonalLoop=1;jettySize=auto;html=1;exitX=0.5;exitY=1;exitDx=0;exitDy=0;entryX=0.5;entryY=0;entryDx=0;entryDy=0;fontSize=16;startArrow=diamondThin;startFill=0;endArrow=none;endFill=0;strokeWidth=1;targetPerimeterSpacing=6;sourcePerimeterSpacing=7;endSize=20;startSize=16;" edge="1" parent="vDpiEcn6uXyjwfCjXjLu-1" source="UxlzFSRNFClFM0cdWgSV-0" target="UxlzFSRNFClFM0cdWgSV-1">
          <mxGeometry relative="1" as="geometry" />
        </mxCell>
        <mxCell id="UxlzFSRNFClFM0cdWgSV-9" style="edgeStyle=orthogonalEdgeStyle;rounded=0;orthogonalLoop=1;jettySize=auto;html=1;exitX=1;exitY=0.5;exitDx=0;exitDy=0;entryX=0;entryY=0.5;entryDx=0;entryDy=0;fontSize=16;startArrow=classic;startFill=1;endArrow=classic;endFill=1;startSize=6;endSize=6;sourcePerimeterSpacing=6;targetPerimeterSpacing=6;strokeWidth=1;" edge="1" parent="vDpiEcn6uXyjwfCjXjLu-1" source="UxlzFSRNFClFM0cdWgSV-0" target="UxlzFSRNFClFM0cdWgSV-3">
          <mxGeometry relative="1" as="geometry" />
        </mxCell>
        <mxCell id="UxlzFSRNFClFM0cdWgSV-0" value="Контейнеры" style="rounded=0;whiteSpace=wrap;html=1;fontSize=16;strokeWidth=4;fillColor=#E1F5E0;strokeColor=#82b366;" vertex="1" parent="vDpiEcn6uXyjwfCjXjLu-1">
          <mxGeometry x="30" y="339" width="130" height="90" as="geometry" />
        </mxCell>
        <mxCell id="UxlzFSRNFClFM0cdWgSV-1" value="Компоненты" style="rounded=0;whiteSpace=wrap;html=1;fontSize=16;strokeWidth=4;fillColor=#E1F5E0;strokeColor=#82b366;" vertex="1" parent="vDpiEcn6uXyjwfCjXjLu-1">
          <mxGeometry x="30" y="469" width="130" height="90" as="geometry" />
        </mxCell>
        <mxCell id="UxlzFSRNFClFM0cdWgSV-8" style="edgeStyle=orthogonalEdgeStyle;rounded=0;orthogonalLoop=1;jettySize=auto;html=1;exitX=1;exitY=0.5;exitDx=0;exitDy=0;entryX=0;entryY=0.5;entryDx=0;entryDy=0;fontSize=16;startArrow=classic;startFill=1;endArrow=classic;endFill=1;startSize=6;endSize=6;sourcePerimeterSpacing=6;targetPerimeterSpacing=6;strokeWidth=1;" edge="1" parent="vDpiEcn6uXyjwfCjXjLu-1" source="UxlzFSRNFClFM0cdWgSV-2" target="UxlzFSRNFClFM0cdWgSV-3">
          <mxGeometry relative="1" as="geometry" />
        </mxCell>
        <mxCell id="UxlzFSRNFClFM0cdWgSV-2" value="Подсистема предпоказа паспорта ПЭС" style="rounded=0;whiteSpace=wrap;html=1;fontSize=16;strokeWidth=4;fillColor=#E1F5E0;strokeColor=#82b366;" vertex="1" parent="vDpiEcn6uXyjwfCjXjLu-1">
          <mxGeometry x="30" y="219" width="130" height="90" as="geometry" />
        </mxCell>
        <mxCell id="UxlzFSRNFClFM0cdWgSV-10" style="edgeStyle=orthogonalEdgeStyle;rounded=0;orthogonalLoop=1;jettySize=auto;html=1;exitX=1;exitY=0.5;exitDx=0;exitDy=0;fontSize=16;startArrow=classic;startFill=1;endArrow=none;endFill=0;startSize=6;endSize=6;sourcePerimeterSpacing=6;targetPerimeterSpacing=6;strokeWidth=1;" edge="1" parent="vDpiEcn6uXyjwfCjXjLu-1" source="UxlzFSRNFClFM0cdWgSV-3">
          <mxGeometry relative="1" as="geometry">
            <mxPoint x="600" y="400" as="targetPoint" />
            <Array as="points">
              <mxPoint x="380" y="329" />
              <mxPoint x="380" y="400" />
            </Array>
          </mxGeometry>
        </mxCell>
        <mxCell id="UxlzFSRNFClFM0cdWgSV-11" style="edgeStyle=orthogonalEdgeStyle;rounded=0;orthogonalLoop=1;jettySize=auto;html=1;exitX=1;exitY=0.5;exitDx=0;exitDy=0;fontSize=16;startArrow=classic;startFill=1;endArrow=none;endFill=0;startSize=6;endSize=6;sourcePerimeterSpacing=6;targetPerimeterSpacing=6;strokeWidth=1;" edge="1" parent="vDpiEcn6uXyjwfCjXjLu-1" source="UxlzFSRNFClFM0cdWgSV-3">
          <mxGeometry relative="1" as="geometry">
            <mxPoint x="600" y="360" as="targetPoint" />
            <Array as="points">
              <mxPoint x="380" y="329" />
              <mxPoint x="380" y="360" />
            </Array>
          </mxGeometry>
        </mxCell>
        <mxCell id="UxlzFSRNFClFM0cdWgSV-12" style="edgeStyle=orthogonalEdgeStyle;rounded=0;orthogonalLoop=1;jettySize=auto;html=1;exitX=1;exitY=0.5;exitDx=0;exitDy=0;fontSize=16;startArrow=classic;startFill=1;endArrow=none;endFill=0;startSize=6;endSize=6;sourcePerimeterSpacing=6;targetPerimeterSpacing=6;strokeWidth=1;" edge="1" parent="vDpiEcn6uXyjwfCjXjLu-1" source="UxlzFSRNFClFM0cdWgSV-3">
          <mxGeometry relative="1" as="geometry">
            <mxPoint x="600" y="290" as="targetPoint" />
            <Array as="points">
              <mxPoint x="380" y="329" />
              <mxPoint x="380" y="290" />
            </Array>
          </mxGeometry>
        </mxCell>
        <mxCell id="UxlzFSRNFClFM0cdWgSV-13" style="edgeStyle=orthogonalEdgeStyle;rounded=0;orthogonalLoop=1;jettySize=auto;html=1;exitX=1;exitY=0.5;exitDx=0;exitDy=0;fontSize=16;startArrow=classic;startFill=1;endArrow=none;endFill=0;startSize=6;endSize=6;sourcePerimeterSpacing=6;targetPerimeterSpacing=6;strokeWidth=1;" edge="1" parent="vDpiEcn6uXyjwfCjXjLu-1" source="UxlzFSRNFClFM0cdWgSV-3">
          <mxGeometry relative="1" as="geometry">
            <mxPoint x="600" y="240" as="targetPoint" />
            <Array as="points">
              <mxPoint x="380" y="329" />
              <mxPoint x="380" y="240" />
            </Array>
          </mxGeometry>
        </mxCell>
        <mxCell id="UxlzFSRNFClFM0cdWgSV-3" value="Подсистема взаимодействия с API" style="rounded=0;whiteSpace=wrap;html=1;fontSize=16;strokeWidth=4;fillColor=#E1F5E0;strokeColor=#82b366;" vertex="1" parent="vDpiEcn6uXyjwfCjXjLu-1">
          <mxGeometry x="203.75" y="284" width="130" height="90" as="geometry" />
        </mxCell>
      </root>
    </mxGraphModel>
  </diagram>
  <diagram id="7ArMAXvEi4PndeQCqGmK" name="2.4">
    <mxGraphModel dx="946" dy="557" grid="1" gridSize="10" guides="1" tooltips="1" connect="1" arrows="1" fold="1" page="1" pageScale="1" pageWidth="827" pageHeight="1169" math="0" shadow="0">
      <root>
        <mxCell id="lFl3z09SAMOXgDoTMGG_-0" />
        <mxCell id="lFl3z09SAMOXgDoTMGG_-1" parent="lFl3z09SAMOXgDoTMGG_-0" />
        <mxCell id="lFl3z09SAMOXgDoTMGG_-2" value="User" style="swimlane;fontStyle=0;childLayout=stackLayout;horizontal=1;startSize=26;fillColor=#d5e8d4;horizontalStack=0;resizeParent=1;resizeParentMax=0;resizeLast=0;collapsible=1;marginBottom=0;strokeColor=#82b366;" parent="lFl3z09SAMOXgDoTMGG_-1" vertex="1">
          <mxGeometry x="340" y="90" width="140" height="104" as="geometry" />
        </mxCell>
        <mxCell id="lFl3z09SAMOXgDoTMGG_-3" value="user_name: str" style="text;strokeColor=#82b366;fillColor=#d5e8d4;align=left;verticalAlign=top;spacingLeft=4;spacingRight=4;overflow=hidden;rotatable=0;points=[[0,0.5],[1,0.5]];portConstraint=eastwest;" parent="lFl3z09SAMOXgDoTMGG_-2" vertex="1">
          <mxGeometry y="26" width="140" height="26" as="geometry" />
        </mxCell>
        <mxCell id="lFl3z09SAMOXgDoTMGG_-4" value="hash_password: str" style="text;strokeColor=#82b366;fillColor=#d5e8d4;align=left;verticalAlign=top;spacingLeft=4;spacingRight=4;overflow=hidden;rotatable=0;points=[[0,0.5],[1,0.5]];portConstraint=eastwest;" parent="lFl3z09SAMOXgDoTMGG_-2" vertex="1">
          <mxGeometry y="52" width="140" height="26" as="geometry" />
        </mxCell>
        <mxCell id="lFl3z09SAMOXgDoTMGG_-5" value="is_staff: bool" style="text;strokeColor=#82b366;fillColor=#d5e8d4;align=left;verticalAlign=top;spacingLeft=4;spacingRight=4;overflow=hidden;rotatable=0;points=[[0,0.5],[1,0.5]];portConstraint=eastwest;" parent="lFl3z09SAMOXgDoTMGG_-2" vertex="1">
          <mxGeometry y="78" width="140" height="26" as="geometry" />
        </mxCell>
        <mxCell id="lFl3z09SAMOXgDoTMGG_-28" style="edgeStyle=orthogonalEdgeStyle;rounded=0;orthogonalLoop=1;jettySize=auto;html=1;exitX=0.5;exitY=0;exitDx=0;exitDy=0;entryX=0.5;entryY=1;entryDx=0;entryDy=0;endArrow=diamondThin;endFill=1;endSize=16;" parent="lFl3z09SAMOXgDoTMGG_-1" source="lFl3z09SAMOXgDoTMGG_-7" target="lFl3z09SAMOXgDoTMGG_-2" edge="1">
          <mxGeometry relative="1" as="geometry" />
        </mxCell>
        <mxCell id="lFl3z09SAMOXgDoTMGG_-7" value="Employer" style="swimlane;fontStyle=0;childLayout=stackLayout;horizontal=1;startSize=26;fillColor=#fff2cc;horizontalStack=0;resizeParent=1;resizeParentMax=0;resizeLast=0;collapsible=1;marginBottom=0;strokeColor=#d6b656;" parent="lFl3z09SAMOXgDoTMGG_-1" vertex="1">
          <mxGeometry x="315" y="243" width="190" height="104" as="geometry" />
        </mxCell>
        <mxCell id="lFl3z09SAMOXgDoTMGG_-8" value="first_login: bool" style="text;strokeColor=#d6b656;fillColor=#fff2cc;align=left;verticalAlign=top;spacingLeft=4;spacingRight=4;overflow=hidden;rotatable=0;points=[[0,0.5],[1,0.5]];portConstraint=eastwest;" parent="lFl3z09SAMOXgDoTMGG_-7" vertex="1">
          <mxGeometry y="26" width="190" height="26" as="geometry" />
        </mxCell>
        <mxCell id="lFl3z09SAMOXgDoTMGG_-9" value="last_chage_password: date" style="text;strokeColor=#d6b656;fillColor=#fff2cc;align=left;verticalAlign=top;spacingLeft=4;spacingRight=4;overflow=hidden;rotatable=0;points=[[0,0.5],[1,0.5]];portConstraint=eastwest;" parent="lFl3z09SAMOXgDoTMGG_-7" vertex="1">
          <mxGeometry y="52" width="190" height="26" as="geometry" />
        </mxCell>
        <mxCell id="lFl3z09SAMOXgDoTMGG_-10" value="FK(User)" style="text;strokeColor=#d6b656;fillColor=#fff2cc;align=left;verticalAlign=top;spacingLeft=4;spacingRight=4;overflow=hidden;rotatable=0;points=[[0,0.5],[1,0.5]];portConstraint=eastwest;" parent="lFl3z09SAMOXgDoTMGG_-7" vertex="1">
          <mxGeometry y="78" width="190" height="26" as="geometry" />
        </mxCell>
        <mxCell id="lFl3z09SAMOXgDoTMGG_-27" style="edgeStyle=orthogonalEdgeStyle;rounded=0;orthogonalLoop=1;jettySize=auto;html=1;exitX=0.5;exitY=0;exitDx=0;exitDy=0;entryX=0.5;entryY=1;entryDx=0;entryDy=0;endArrow=diamondThin;endFill=1;endSize=16;" parent="lFl3z09SAMOXgDoTMGG_-1" source="lFl3z09SAMOXgDoTMGG_-11" target="lFl3z09SAMOXgDoTMGG_-7" edge="1">
          <mxGeometry relative="1" as="geometry" />
        </mxCell>
        <mxCell id="lFl3z09SAMOXgDoTMGG_-11" value="Role" style="swimlane;fontStyle=0;childLayout=stackLayout;horizontal=1;startSize=26;fillColor=#e1d5e7;horizontalStack=0;resizeParent=1;resizeParentMax=0;resizeLast=0;collapsible=1;marginBottom=0;strokeColor=#9673a6;" parent="lFl3z09SAMOXgDoTMGG_-1" vertex="1">
          <mxGeometry x="340" y="390" width="140" height="52" as="geometry" />
        </mxCell>
        <mxCell id="lFl3z09SAMOXgDoTMGG_-13" value="FK(Emploer)" style="text;strokeColor=#9673a6;fillColor=#e1d5e7;align=left;verticalAlign=top;spacingLeft=4;spacingRight=4;overflow=hidden;rotatable=0;points=[[0,0.5],[1,0.5]];portConstraint=eastwest;" parent="lFl3z09SAMOXgDoTMGG_-11" vertex="1">
          <mxGeometry y="26" width="140" height="26" as="geometry" />
        </mxCell>
        <mxCell id="lFl3z09SAMOXgDoTMGG_-26" style="edgeStyle=orthogonalEdgeStyle;rounded=0;orthogonalLoop=1;jettySize=auto;html=1;exitX=0.75;exitY=0;exitDx=0;exitDy=0;entryX=0.493;entryY=1.038;entryDx=0;entryDy=0;entryPerimeter=0;endArrow=block;endFill=0;endSize=16;" parent="lFl3z09SAMOXgDoTMGG_-1" source="lFl3z09SAMOXgDoTMGG_-15" target="lFl3z09SAMOXgDoTMGG_-13" edge="1">
          <mxGeometry relative="1" as="geometry" />
        </mxCell>
        <mxCell id="lFl3z09SAMOXgDoTMGG_-29" style="edgeStyle=orthogonalEdgeStyle;rounded=0;orthogonalLoop=1;jettySize=auto;html=1;exitX=0.25;exitY=0;exitDx=0;exitDy=0;entryX=0.5;entryY=1;entryDx=0;entryDy=0;endArrow=diamondThin;endFill=1;endSize=16;" parent="lFl3z09SAMOXgDoTMGG_-1" source="lFl3z09SAMOXgDoTMGG_-15" target="lFl3z09SAMOXgDoTMGG_-24" edge="1">
          <mxGeometry relative="1" as="geometry">
            <Array as="points">
              <mxPoint x="235" y="410" />
            </Array>
          </mxGeometry>
        </mxCell>
        <mxCell id="lFl3z09SAMOXgDoTMGG_-15" value="RoleUser" style="swimlane;fontStyle=0;childLayout=stackLayout;horizontal=1;startSize=26;fillColor=#e1d5e7;horizontalStack=0;resizeParent=1;resizeParentMax=0;resizeLast=0;collapsible=1;marginBottom=0;strokeColor=#9673a6;" parent="lFl3z09SAMOXgDoTMGG_-1" vertex="1">
          <mxGeometry x="200" y="530" width="140" height="52" as="geometry" />
        </mxCell>
        <mxCell id="lFl3z09SAMOXgDoTMGG_-16" value="FK(EObject)" style="text;strokeColor=#9673a6;fillColor=#e1d5e7;align=left;verticalAlign=top;spacingLeft=4;spacingRight=4;overflow=hidden;rotatable=0;points=[[0,0.5],[1,0.5]];portConstraint=eastwest;" parent="lFl3z09SAMOXgDoTMGG_-15" vertex="1">
          <mxGeometry y="26" width="140" height="26" as="geometry" />
        </mxCell>
        <mxCell id="lFl3z09SAMOXgDoTMGG_-25" style="edgeStyle=orthogonalEdgeStyle;rounded=0;orthogonalLoop=1;jettySize=auto;html=1;exitX=0.5;exitY=0;exitDx=0;exitDy=0;entryX=0.5;entryY=1;entryDx=0;entryDy=0;endArrow=block;endFill=0;endSize=16;" parent="lFl3z09SAMOXgDoTMGG_-1" source="lFl3z09SAMOXgDoTMGG_-19" target="lFl3z09SAMOXgDoTMGG_-11" edge="1">
          <mxGeometry relative="1" as="geometry">
            <Array as="points">
              <mxPoint x="550" y="490" />
              <mxPoint x="410" y="490" />
            </Array>
          </mxGeometry>
        </mxCell>
        <mxCell id="lFl3z09SAMOXgDoTMGG_-19" value="RoleAdmin" style="swimlane;fontStyle=0;childLayout=stackLayout;horizontal=1;startSize=26;fillColor=#e1d5e7;horizontalStack=0;resizeParent=1;resizeParentMax=0;resizeLast=0;collapsible=1;marginBottom=0;strokeColor=#9673a6;" parent="lFl3z09SAMOXgDoTMGG_-1" vertex="1">
          <mxGeometry x="480" y="544" width="140" height="30" as="geometry" />
        </mxCell>
        <mxCell id="lFl3z09SAMOXgDoTMGG_-24" value="EObject" style="swimlane;fontStyle=0;childLayout=stackLayout;horizontal=1;startSize=26;fillColor=#f8cecc;horizontalStack=0;resizeParent=1;resizeParentMax=0;resizeLast=0;collapsible=1;marginBottom=0;strokeColor=#b85450;" parent="lFl3z09SAMOXgDoTMGG_-1" vertex="1">
          <mxGeometry x="166" y="401" width="140" height="30" as="geometry" />
        </mxCell>
      </root>
    </mxGraphModel>
  </diagram>
  <diagram id="ZW2pKMLKBT21dWmsO-Ws" name="2.5">
    <mxGraphModel dx="946" dy="557" grid="1" gridSize="10" guides="1" tooltips="1" connect="1" arrows="1" fold="1" page="1" pageScale="1" pageWidth="827" pageHeight="1169" math="0" shadow="0">
      <root>
        <mxCell id="DoWeuW_7OF4tSivlI7u--0" />
        <mxCell id="DoWeuW_7OF4tSivlI7u--1" parent="DoWeuW_7OF4tSivlI7u--0" />
        <mxCell id="qTlV4MmMbltpGM6ram7X-0" value="BasePermission" style="swimlane;fontStyle=0;childLayout=stackLayout;horizontal=1;startSize=26;fillColor=#d5e8d4;horizontalStack=0;resizeParent=1;resizeParentMax=0;resizeLast=0;collapsible=1;marginBottom=0;strokeColor=#82b366;" vertex="1" parent="DoWeuW_7OF4tSivlI7u--1">
          <mxGeometry x="340" y="90" width="140" height="78" as="geometry" />
        </mxCell>
        <mxCell id="qTlV4MmMbltpGM6ram7X-1" value="+ has_permission(self, request, view)" style="text;strokeColor=#82b366;fillColor=#d5e8d4;align=left;verticalAlign=top;spacingLeft=4;spacingRight=4;overflow=hidden;rotatable=0;points=[[0,0.5],[1,0.5]];portConstraint=eastwest;" vertex="1" parent="qTlV4MmMbltpGM6ram7X-0">
          <mxGeometry y="26" width="140" height="26" as="geometry" />
        </mxCell>
        <mxCell id="qTlV4MmMbltpGM6ram7X-2" value="+ has_object_permission(self, request, view, obj)" style="text;strokeColor=#82b366;fillColor=#d5e8d4;align=left;verticalAlign=top;spacingLeft=4;spacingRight=4;overflow=hidden;rotatable=0;points=[[0,0.5],[1,0.5]];portConstraint=eastwest;" vertex="1" parent="qTlV4MmMbltpGM6ram7X-0">
          <mxGeometry y="52" width="140" height="26" as="geometry" />
        </mxCell>
        <mxCell id="qTlV4MmMbltpGM6ram7X-4" style="edgeStyle=orthogonalEdgeStyle;rounded=0;orthogonalLoop=1;jettySize=auto;html=1;exitX=0.5;exitY=0;exitDx=0;exitDy=0;entryX=0.5;entryY=1;entryDx=0;entryDy=0;endArrow=diamondThin;endFill=1;endSize=16;" edge="1" parent="DoWeuW_7OF4tSivlI7u--1" source="qTlV4MmMbltpGM6ram7X-5" target="qTlV4MmMbltpGM6ram7X-0">
          <mxGeometry relative="1" as="geometry" />
        </mxCell>
        <mxCell id="qTlV4MmMbltpGM6ram7X-5" value="IsAuthenticated" style="swimlane;fontStyle=0;childLayout=stackLayout;horizontal=1;startSize=26;fillColor=#fff2cc;horizontalStack=0;resizeParent=1;resizeParentMax=0;resizeLast=0;collapsible=1;marginBottom=0;strokeColor=#d6b656;" vertex="1" parent="DoWeuW_7OF4tSivlI7u--1">
          <mxGeometry x="315" y="243" width="190" height="27" as="geometry" />
        </mxCell>
        <mxCell id="qTlV4MmMbltpGM6ram7X-28" style="edgeStyle=orthogonalEdgeStyle;rounded=0;orthogonalLoop=1;jettySize=auto;html=1;exitX=1;exitY=0.5;exitDx=0;exitDy=0;entryX=0.5;entryY=1;entryDx=0;entryDy=0;endArrow=block;endFill=0;strokeWidth=1;endSize=17;" edge="1" parent="DoWeuW_7OF4tSivlI7u--1" source="qTlV4MmMbltpGM6ram7X-17" target="qTlV4MmMbltpGM6ram7X-5">
          <mxGeometry relative="1" as="geometry" />
        </mxCell>
        <mxCell id="qTlV4MmMbltpGM6ram7X-17" value="EObjectPartPermission" style="swimlane;fontStyle=0;childLayout=stackLayout;horizontal=1;startSize=26;fillColor=#e1d5e7;horizontalStack=0;resizeParent=1;resizeParentMax=0;resizeLast=0;collapsible=1;marginBottom=0;strokeColor=#9673a6;" vertex="1" parent="DoWeuW_7OF4tSivlI7u--1">
          <mxGeometry x="180" y="370" width="140" height="30" as="geometry" />
        </mxCell>
        <mxCell id="qTlV4MmMbltpGM6ram7X-27" style="edgeStyle=orthogonalEdgeStyle;rounded=0;orthogonalLoop=1;jettySize=auto;html=1;exitX=1;exitY=0.5;exitDx=0;exitDy=0;entryX=0.5;entryY=1;entryDx=0;entryDy=0;endArrow=block;endFill=0;strokeWidth=1;endSize=17;" edge="1" parent="DoWeuW_7OF4tSivlI7u--1" source="qTlV4MmMbltpGM6ram7X-19" target="qTlV4MmMbltpGM6ram7X-5">
          <mxGeometry relative="1" as="geometry" />
        </mxCell>
        <mxCell id="qTlV4MmMbltpGM6ram7X-19" value="EObjectPermission" style="swimlane;fontStyle=0;childLayout=stackLayout;horizontal=1;startSize=26;fillColor=#e1d5e7;horizontalStack=0;resizeParent=1;resizeParentMax=0;resizeLast=0;collapsible=1;marginBottom=0;strokeColor=#9673a6;" vertex="1" parent="DoWeuW_7OF4tSivlI7u--1">
          <mxGeometry x="180" y="320" width="140" height="30" as="geometry" />
        </mxCell>
        <mxCell id="qTlV4MmMbltpGM6ram7X-32" style="edgeStyle=orthogonalEdgeStyle;rounded=0;orthogonalLoop=1;jettySize=auto;html=1;exitX=1;exitY=0.5;exitDx=0;exitDy=0;entryX=0.5;entryY=1;entryDx=0;entryDy=0;endArrow=block;endFill=0;strokeWidth=1;endSize=17;" edge="1" parent="DoWeuW_7OF4tSivlI7u--1" source="qTlV4MmMbltpGM6ram7X-20" target="qTlV4MmMbltpGM6ram7X-5">
          <mxGeometry relative="1" as="geometry" />
        </mxCell>
        <mxCell id="qTlV4MmMbltpGM6ram7X-20" value="EventPermission" style="swimlane;fontStyle=0;childLayout=stackLayout;horizontal=1;startSize=26;fillColor=#e1d5e7;horizontalStack=0;resizeParent=1;resizeParentMax=0;resizeLast=0;collapsible=1;marginBottom=0;strokeColor=#9673a6;" vertex="1" parent="DoWeuW_7OF4tSivlI7u--1">
          <mxGeometry x="180" y="470" width="140" height="30" as="geometry" />
        </mxCell>
        <mxCell id="qTlV4MmMbltpGM6ram7X-26" style="edgeStyle=orthogonalEdgeStyle;rounded=0;orthogonalLoop=1;jettySize=auto;html=1;exitX=0;exitY=0.5;exitDx=0;exitDy=0;entryX=0.5;entryY=1;entryDx=0;entryDy=0;endArrow=block;endFill=0;strokeWidth=1;endSize=17;" edge="1" parent="DoWeuW_7OF4tSivlI7u--1" source="qTlV4MmMbltpGM6ram7X-21" target="qTlV4MmMbltpGM6ram7X-5">
          <mxGeometry relative="1" as="geometry" />
        </mxCell>
        <mxCell id="qTlV4MmMbltpGM6ram7X-21" value="MeterPermission" style="swimlane;fontStyle=0;childLayout=stackLayout;horizontal=1;startSize=26;fillColor=#e1d5e7;horizontalStack=0;resizeParent=1;resizeParentMax=0;resizeLast=0;collapsible=1;marginBottom=0;strokeColor=#9673a6;" vertex="1" parent="DoWeuW_7OF4tSivlI7u--1">
          <mxGeometry x="505" y="320" width="140" height="30" as="geometry" />
        </mxCell>
        <mxCell id="qTlV4MmMbltpGM6ram7X-31" style="edgeStyle=orthogonalEdgeStyle;rounded=0;orthogonalLoop=1;jettySize=auto;html=1;exitX=1;exitY=0.5;exitDx=0;exitDy=0;endArrow=block;endFill=0;strokeWidth=1;endSize=17;" edge="1" parent="DoWeuW_7OF4tSivlI7u--1" source="qTlV4MmMbltpGM6ram7X-22">
          <mxGeometry relative="1" as="geometry">
            <mxPoint x="410" y="270" as="targetPoint" />
          </mxGeometry>
        </mxCell>
        <mxCell id="qTlV4MmMbltpGM6ram7X-22" value="BuildingPermission" style="swimlane;fontStyle=0;childLayout=stackLayout;horizontal=1;startSize=26;fillColor=#e1d5e7;horizontalStack=0;resizeParent=1;resizeParentMax=0;resizeLast=0;collapsible=1;marginBottom=0;strokeColor=#9673a6;" vertex="1" parent="DoWeuW_7OF4tSivlI7u--1">
          <mxGeometry x="180" y="420" width="140" height="30" as="geometry" />
        </mxCell>
        <mxCell id="qTlV4MmMbltpGM6ram7X-30" style="edgeStyle=orthogonalEdgeStyle;rounded=0;orthogonalLoop=1;jettySize=auto;html=1;exitX=0;exitY=0.5;exitDx=0;exitDy=0;endArrow=block;endFill=0;strokeWidth=1;endSize=17;" edge="1" parent="DoWeuW_7OF4tSivlI7u--1" source="qTlV4MmMbltpGM6ram7X-23">
          <mxGeometry relative="1" as="geometry">
            <mxPoint x="410" y="270" as="targetPoint" />
          </mxGeometry>
        </mxCell>
        <mxCell id="qTlV4MmMbltpGM6ram7X-23" value="ManagerPermission" style="swimlane;fontStyle=0;childLayout=stackLayout;horizontal=1;startSize=26;fillColor=#e1d5e7;horizontalStack=0;resizeParent=1;resizeParentMax=0;resizeLast=0;collapsible=1;marginBottom=0;strokeColor=#9673a6;" vertex="1" parent="DoWeuW_7OF4tSivlI7u--1">
          <mxGeometry x="505" y="420" width="140" height="30" as="geometry" />
        </mxCell>
        <mxCell id="qTlV4MmMbltpGM6ram7X-33" style="edgeStyle=orthogonalEdgeStyle;rounded=0;orthogonalLoop=1;jettySize=auto;html=1;exitX=0;exitY=0.5;exitDx=0;exitDy=0;endArrow=block;endFill=0;strokeWidth=1;endSize=17;" edge="1" parent="DoWeuW_7OF4tSivlI7u--1" source="qTlV4MmMbltpGM6ram7X-24">
          <mxGeometry relative="1" as="geometry">
            <mxPoint x="410" y="270" as="targetPoint" />
          </mxGeometry>
        </mxCell>
        <mxCell id="qTlV4MmMbltpGM6ram7X-24" value="AddressPermission" style="swimlane;fontStyle=0;childLayout=stackLayout;horizontal=1;startSize=26;fillColor=#e1d5e7;horizontalStack=0;resizeParent=1;resizeParentMax=0;resizeLast=0;collapsible=1;marginBottom=0;strokeColor=#9673a6;" vertex="1" parent="DoWeuW_7OF4tSivlI7u--1">
          <mxGeometry x="505" y="470" width="140" height="30" as="geometry" />
        </mxCell>
        <mxCell id="qTlV4MmMbltpGM6ram7X-29" style="edgeStyle=orthogonalEdgeStyle;rounded=0;orthogonalLoop=1;jettySize=auto;html=1;exitX=0;exitY=0.5;exitDx=0;exitDy=0;endArrow=block;endFill=0;strokeWidth=1;endSize=17;" edge="1" parent="DoWeuW_7OF4tSivlI7u--1" source="qTlV4MmMbltpGM6ram7X-25">
          <mxGeometry relative="1" as="geometry">
            <mxPoint x="410" y="270" as="targetPoint" />
          </mxGeometry>
        </mxCell>
        <mxCell id="qTlV4MmMbltpGM6ram7X-25" value="ConsumptionPermission" style="swimlane;fontStyle=0;childLayout=stackLayout;horizontal=1;startSize=26;fillColor=#e1d5e7;horizontalStack=0;resizeParent=1;resizeParentMax=0;resizeLast=0;collapsible=1;marginBottom=0;strokeColor=#9673a6;" vertex="1" parent="DoWeuW_7OF4tSivlI7u--1">
          <mxGeometry x="505" y="370" width="140" height="30" as="geometry" />
        </mxCell>
      </root>
    </mxGraphModel>
  </diagram>
</mxfile>
